<svg width="1920" height="1080" viewBox="0 0 1920 1080" fill="none" xmlns="http://www.w3.org/2000/svg" xmlns:xlink="http://www.w3.org/1999/xlink"><style>text{text-anchor:middle;dominant-baseline:middle; font-size:12px;}</style><path d="M170.685 251.708L170.397 250.973L169.132 250.405L168.925 248.577L168.331 246.129L168.055 245.64L166.902 246.089L166.706 243.509L166.472 242.298L165.641 239.832L165.384 238.472L168.335 238.485L168.389 237.834L167.967 234.422L167.097 232.04L168.914 232.842L170.37 232.031L171.493 232.445L172.616 231.847L173.436 231.05L173.942 231.015L175.878 231.741L175.51 232.493V233.969L176.131 235.135L177.859 236.957L179.162 238.758L179.894 240.471L180.036 241.924L179.611 243.522L177.668 247.348L176.771 248.872L175.824 249.881L174.755 250.392L170.685 251.708Z"  stroke="black" /><path d="M153.203 250.519L155.174 250.638L155.81 250.088L155.703 248.964L156.297 248.243L158.842 246.785L160.195 245.794L159.451 243.161L160.064 243.016L160.616 241.932L162.686 241.444L164.123 240.849L165.641 239.832L166.472 242.298L166.706 243.509L166.902 246.089L168.055 245.64L168.331 246.129L168.925 248.577L169.132 250.405L170.397 250.973L170.685 251.708L168.684 253.091L168.002 254.206L167.63 255.333V256.293L168.527 259.351L168.86 261.113L168.58 262.659L167.86 263.752L166.384 265.531L165.576 266.937V268.488L166.948 271.343L168.684 273.767L168.944 274.873L168.841 277.126L167.714 279.563L167.17 280.854L167.066 283.292L165.016 283.733L164.246 283.557L164.039 282.595L162.494 281.899L162.866 281.282L164.173 280.854L163.563 279.298L163.743 278.351L162.613 278.761L162.36 278.514L161.191 279.391L160.214 279.563L159.589 279.034L160.443 276.989L160.359 276.024L159.784 273.335L155.672 274.036L154.81 272.37L153.545 270.308L152.851 268.669L151.103 263.174L150.007 263.716L150.137 264.245L148.892 264.646L148.601 263.483L150.253 262.866L151 262.844L150.467 261.139L148.24 262.104L147.397 258.765L148.099 258.47L147.723 257.148L148.474 256.593L148.206 255.386L149.206 255.258L149.283 254.642L149.766 255.043L152.897 253.858L153.916 253.36L153.943 251.902L153.476 252.096L153.203 250.519Z"  stroke="black" /><path d="M160.616 241.932L160.064 243.016L159.451 243.161L160.195 245.794L158.842 246.785L156.297 248.243L155.703 248.964L155.81 250.088L155.174 250.638L153.203 250.519L147.374 250.228L144.227 250.907L140.353 252.558L138.781 252.66L138.249 252.396L137.873 253.589L136.865 254.008L136.347 253.32L133.588 254.814L132.741 254.567L130.94 251.07L132.661 249.969L132.465 248.793L132.902 248.489L132.768 244.807L132.787 242.778L133.197 242.743L133.025 241.148L133.876 240.717L134.052 238.776L134.749 238.608L133.473 238.335L133.634 237.591L134.676 237.006L134.68 236.086L134.167 234.646L132.745 233.462L133.439 232.573L134.738 232.595L134.47 231.248L135.079 232.172L135.205 231.38L135.658 231.134L135.991 231.878L135.608 232.784L136.742 233.163L137.106 233.612L138.455 236.293L139.291 237.71L140.383 237.697L140.556 238.41L141.855 238.983L142.349 239.872L143.373 239.652L146.611 240.405L149.659 240.378L149.865 239.608L150.785 239.691L152.138 239.035L153.641 238.67L154.139 238.26L153.832 236.944L154.043 236.75L155.235 237.996L156.17 236.922L157.324 236.491L157.377 238.353L157.742 238.767L159.194 237.741L159.501 238.04L159.708 239.656L160.616 241.932Z"  stroke="black" /><path d="M172.616 231.847L171.493 232.445L170.37 232.031L168.914 232.842L167.097 232.04L167.967 234.422L168.389 237.834L168.335 238.485L165.384 238.472L165.641 239.832L164.123 240.849L162.686 241.444L160.616 241.932L159.708 239.656L159.501 238.04L159.194 237.741L157.742 238.767L157.377 238.353L157.324 236.491L157.431 235.808L158.286 234.352L159.432 234.298L162.356 232.058L163.517 231.341L163.057 230.636L163.632 229.707L163.924 228.145L163.333 227.802L163.809 226.574L161.578 222.587L159.964 221.733L158.673 220.813L157.964 219.717L156.699 221.284L156.511 220.818L156.473 217.764L156.032 216.286L156.3 213.804L155.166 213.782L154.878 213.347L155.262 211.635L156.255 211.508L157.163 211.042L157.025 209.322L158.362 209.163L158.681 208.328L158.47 207.017L158.604 206.208L159.282 205.979L158.688 203.639L158.999 202.83H159.788L159.873 203.274L162.617 203.217L162.938 204.215L164.817 203.428L165.487 202.781L167.76 202.636L168.523 203.032L168.569 204.607L168.392 208.182L167.25 208.292L167.526 211.24L166.952 213.166L166.3 214.258L166.775 216.127L166.679 218.248L167.059 219.546L167.553 219.911L168.925 222.336L170.171 223.933L171.926 225.729L171.953 226.952L171.688 227.634L172.252 228.625L171.677 228.946L172.129 229.628L172.616 231.847Z"  stroke="black" /><path d="M137.106 233.612L137.624 233.361L137.628 232.498L138.735 232.37L138.896 233.052L139.571 232.52L140.563 230.222L141.023 229.839L142.116 231.173L142.323 230.465L143.036 230.905L143.457 229.716L144.469 226.024L143.538 225.394L142.89 225.39L142.729 226.283L140.333 226.054L140.372 225.438L139.203 225.223L138.413 223.876L138.67 222.631L139.325 222.424L140.64 222.754L140.763 221.663L139.061 221.218L138.413 221.971L137.973 221.007L134.5 220.087L134.174 220.998L132.722 220.483L132.89 219.687L132.159 219.52L132.112 217.835L131.821 217.958L131.196 215.622L130.165 216.163L129.702 215.947L129.445 214.57L131.415 213.769L131.239 213.074L132.235 212.375L132.833 212.991L133.477 212.81L133.454 211.442L135.086 211.363L135.098 211.842L135.861 211.389L135.65 210.778L136.769 209.889L137.279 210.571L138.797 209.502L139.686 209.493L138.793 212.458L138.321 212.902L139.755 213.431V213.686L141.376 214.5L141.51 214.055L142.802 214.508L143.189 213.958L144.649 214.385L144.672 213.18L145.538 212.542L146.539 212.243L148.294 212.458L147.941 213.708L149.156 213.985L149.616 214.579L149.31 215.225L149.842 215.604L150.965 215.564L149.762 218.56L150.996 219.238L151.529 219.005L151.237 220.4L152.759 220.36L152.659 221.39L153.947 221.843L154.085 223.035L155.112 223.278L156.699 221.284L157.964 219.717L158.673 220.813L159.964 221.733L161.578 222.587L163.809 226.574L163.333 227.802L163.924 228.145L163.632 229.707L163.057 230.636L163.517 231.341L162.356 232.058L159.432 234.298L158.286 234.352L157.431 235.808L157.324 236.491L156.17 236.922L155.235 237.996L154.043 236.75L153.832 236.944L154.139 238.26L153.641 238.67L152.138 239.035L150.785 239.691L149.865 239.608L149.659 240.378L146.611 240.405L143.373 239.652L142.349 239.872L141.855 238.983L140.556 238.41L140.383 237.697L139.291 237.71L138.455 236.293L137.106 233.612Z"  stroke="black" /><path d="M173.283 206.247L173.352 209.22L174.594 213.219L175.552 212.749L177.484 212.159L178.051 214.302L176.794 215.551L176.215 216.752L176.357 219.172L177.281 219.357L179.097 221.31L179.043 222.723L179.641 224.233L181.32 226.556L182.167 228.194L181.715 228.29L181.849 229.998L179.201 230.174L177.307 230.72L175.878 231.741L173.942 231.015L173.436 231.05L172.616 231.847L172.129 229.628L171.677 228.946L172.252 228.625L171.688 227.634L171.953 226.952L171.926 225.729L170.171 223.933L168.925 222.336L167.553 219.911L167.059 219.546L166.679 218.248L166.775 216.127L166.3 214.258L166.952 213.166L167.526 211.24L167.25 208.292L168.392 208.182L168.569 204.607L169.849 204.694L171.562 205.099L173.272 205.121L173.283 206.247Z"  stroke="black" /><path d="M181.849 229.998L181.715 228.29L182.167 228.194L181.32 226.556L179.641 224.233L179.043 222.723L179.097 221.31L177.281 219.357L176.357 219.172L176.215 216.752L176.794 215.551L178.051 214.302L177.484 212.159L175.552 212.749L174.594 213.219L173.352 209.22L173.283 206.247L176.399 206.278L176.261 201.919L177.008 201.194L176.641 200.169L175.533 199.364L178.837 193.692L182.163 195.512L182.888 194.316L183.612 194.738L184.329 193.3L190.921 196.611L192.68 198.023L193.451 199.012L193.98 200.279L194.363 202.724L194.328 209.273L194.539 210.589L195.348 212.656L196.364 215.92L196.471 218.011L196.191 219.432L194.819 221.966L193.588 223.652L188.755 228.207L187.334 229.017L184.9 229.888L181.849 229.998Z"  stroke="black" /><path d="M138.356 328.902L136.302 329.591L134.232 329.366L131.656 327.861L130.319 327.631L129.717 327.874L129.284 326.903L129.587 324.454L129.552 322.794L129.747 322.273L130.537 321.902L132.71 318.487L133.151 316.991L134.37 315.641L133.967 315.319L133.17 315.672L131.289 315.862L131.469 315.01L131.515 310.872L131.354 309.486L131.549 309.032L131.453 305.807L131.848 303.99L131.913 298.552L133.6 297.697L134.148 299.029L136.903 298.239L138.214 297.225L137.961 296.228L139.743 295.642L139.931 295.081L139.295 294.081L139.908 293.675L140.222 292.136L141.138 291.682L141.64 291.959L142.024 291.409L140.996 288.062L139.471 284.094L138.459 284.403L138.268 283.719L136.325 284.284L135.55 281.564L136.417 281.167L136.566 281.626L137.888 280.14L137.616 279.404L136.995 279.779L136.137 278.293L136.8 277.54L135.842 277.487L135.06 276.05L135.278 275.935L134.546 274.538L134.853 274.38L134.305 273.185L134.489 272.859L133.776 271.273L132.308 269.686L132.871 269.246L132.296 268.003L131.951 267.889L131.465 266.087L130.798 265.716L130.863 264.879L130.104 263.183L129.675 263.113L128.747 260.879L127.295 258.188L127.145 256.95L126.666 255.769L125.145 253.052L124.531 251.523L122.328 248.348L121.484 246.736L120.749 246.124L120.085 246.331L120.001 247.027L118.679 248.603L117.771 249.317L115.939 249.616L114.371 247.877L112.999 246.058L112.462 246.036L111.987 245.16L112.435 244.781L112.206 243.98L110.979 242.562L111.481 241.712L111.056 240.585L110.443 239.828L110.653 238.885L110.205 237.578L110.596 237.38L110.362 235.971L109.534 235.082L109.158 233.669L108.687 233.216L108.304 233.827L107.813 232.216L106.016 232.472L105.613 232.163L106.096 229.853L107.261 229.311L107.648 227.67L109.542 225.685L109.603 225.337L111.205 225.817L112.244 225.513L112.37 226.49L114.256 228.048L115.364 227.582L116.759 228.185L117.824 228.202L117.05 229.549L117.69 230.645L118.671 231.349L119.012 233.216L120.143 235.214L121.323 235.844L122.998 236.007L126.413 237.257L128.471 236.367L129.372 236.385L131.511 235.492L131.802 234.065L132.745 233.462L134.167 234.646L134.68 236.086L134.676 237.006L133.634 237.591L133.473 238.335L134.749 238.608L134.052 238.776L133.876 240.717L133.025 241.148L133.197 242.743L132.787 242.778L132.768 244.807L132.902 248.489L132.465 248.793L132.661 249.969L130.94 251.07L132.741 254.567L133.588 254.814L136.347 253.32L136.865 254.008L137.873 253.589L138.249 252.396L138.781 252.66L140.353 252.558L144.227 250.907L147.374 250.228L153.203 250.519L153.476 252.096L153.943 251.902L153.916 253.36L152.897 253.858L149.766 255.043L149.283 254.642L149.206 255.258L148.206 255.386L148.474 256.593L147.723 257.148L148.099 258.47L147.397 258.765L148.24 262.104L150.467 261.139L151 262.844L150.253 262.866L148.601 263.483L148.892 264.646L150.137 264.245L150.007 263.716L151.103 263.174L152.851 268.669L153.545 270.308L154.81 272.37L155.672 274.036L159.784 273.335L160.359 276.024L160.443 276.989L159.589 279.034L160.214 279.563L161.191 279.391L162.36 278.514L162.613 278.761L163.743 278.351L163.563 279.298L164.173 280.854L162.866 281.282L162.494 281.899L164.039 282.595L164.246 283.557L165.016 283.733L167.066 283.292L167.17 280.854L167.714 279.563L169.113 279.99L170.132 279.263L170.175 278.734L171.052 280.021L172.164 280.078L171.087 277.641L172.137 277.385L172.317 276.628L173.363 275.949L173.436 274.997L174.621 275.085L175.322 277.13L176.901 276.108L177.74 278.62L178.764 278.315L178.369 277.275L178.817 276.658L180.431 276.222L181.094 277.39L181.305 278.395L183.21 278.016L183.608 278.408L184.275 277.857L185.965 277.24L186.195 277.685L187.046 277.403L187.747 278.871L188.2 278.267L188.951 278.073L189.495 279.797L190.45 280.462L191.204 279.739L190.871 279.078L191.726 278.902L192.006 279.347L192.542 278.54L192.933 279.202L193.807 279.638L193.251 280.409L194.229 281.723L194.156 282.075L194.85 283.327L194.413 283.548L194.758 284.394L195.723 285.271L195.846 286.351L195.045 286.991L194.355 286.999L194.274 286.373L193.592 286.969L191.53 287.638L191.511 288.366L190.687 288.829L191.243 290.319L192.067 291.25L192.853 290.972L193.025 290.368L194.274 290.02L194.83 290.447L196.536 290.769L197.053 291.338L197.333 290.875L198.054 291.338L195.949 292.758L194.566 293.154L194.581 293.454L193.163 293.803L193.577 294.239L192.63 294.416L191.856 295.218L192.949 296.003L191.58 296.638L191.389 297.317L190.687 297.375L190.315 298.107L190.641 299.853L189.242 300.294L189.235 300.911L188.549 301.458L188.966 302.729L188.736 303.712L189.951 303.474L190.48 302.923L190.963 303.156L191.235 302.609L191.829 302.645L192.393 302.085L192.776 303.258L193.025 303.13L193.792 304.294L194.428 304.727L193.696 305.552L193.707 309.636L193.362 309.91L193.404 311.75L192.676 312.345L191.86 312.213L191.711 313.078L192.228 313.925L192.883 313.881L192.872 313.32H193.485L193.918 311.895L195.03 312.976L196.34 311.798L196.156 311.472L197.241 310.96L197.912 313.064L197.889 313.916L196.881 314.728L196.551 316.188L195.459 316.387L196.099 317.066L196.524 316.868L197.004 318.694L196.67 319.087L196.797 319.921L196.038 320.442L196.731 321.373L194.255 322.366L192.718 322.547L192.803 323.2L191.998 323.328L191.856 324.859L190.959 325.063L190.02 323.319L189.239 322.896L187.843 323.284L187.717 322.719L186.816 322.291L186.115 322.671L185.191 322.264L183.616 320.835L182.907 321.002L182.842 319.824L183.398 319.957L183.052 319.131L181.991 317.962L180.174 319.091L179.477 319.021L178.147 319.767L176.982 320.976L176.993 321.422L176.18 321.391L175.084 317.075L175.341 316.078L174.314 315.27L173.409 315.592L170.788 315.862L169.431 316.373L167.818 317.547L166.262 318.046L163.054 318.024L160.988 318.637L159.892 319.273L159.01 320.111L158.401 321.069L156.346 322.781L153.372 324.047L152.311 324.356L148.156 325.085L142.909 327.075L138.356 328.902Z"  stroke="black" /><path d="M156.699 221.284L155.112 223.278L154.085 223.035L153.947 221.843L152.659 221.39L152.759 220.36L151.237 220.4L151.529 219.005L150.996 219.238L149.762 218.56L150.965 215.564L149.842 215.604L149.31 215.225L149.616 214.579L149.156 213.985L147.941 213.708L148.294 212.458L146.539 212.243L145.538 212.542L144.672 213.18L144.649 214.385L143.189 213.958L142.802 214.508L141.51 214.055L141.376 214.499L139.755 213.686V213.431L138.321 212.902L138.793 212.458L139.686 209.493L138.797 209.502L137.279 210.571L136.769 209.889L135.65 210.778L135.861 211.389L135.098 211.842L135.086 211.363L133.454 211.442L133.477 212.81L132.833 212.991L132.235 212.375L132.062 211.587L131.599 211.926L130.802 209.973L132.009 209.273L132.917 206.788L133.297 206.265L134.151 204.184L135.32 204.36L135.344 203.318L135.734 202.667L134.738 202.843L134.535 201.924L135.27 201.651L134.833 201.264L133.837 199.105L133.665 198.265L133.983 197.245L134.929 197.148L134.397 195.09L133.86 195.319L132.902 194.044L132.515 194.131L132.224 193.292L131.131 193.195L131.062 191.643L131.722 191.792L132.576 190.873L132.404 189.911L133.592 189.255L133.289 188.258L132.898 188.082L132.53 186.908L131.825 185.888L132.093 184.736L131.361 184.301L131.545 183.809L130.825 183.181L130.093 182.073L130.802 181.664L130.587 180.679L129.506 180.706L128.529 177.977L127.801 177.744L128.605 176.197L128.552 175.265L128.092 174.637L126.98 174.694L126.237 174.347L126.482 172.743L126.961 172.4L126.118 171.099L130.02 169.351L130.564 169.957L131.307 169.799L131.128 168.925L131.572 168.727L131.101 167.518L132.25 166.741L132.212 164.557L131.859 163.029L132.273 162.906L132.262 161.891L131.45 159L130.782 159.172L129.962 158.64L129.368 156.088L129.725 155.799L128.824 153.528L127.628 153.576L127.314 152.834L127.831 152.689L127.073 151.653L126.934 149.391L127.701 149.22L127.843 148.364L127.122 148.579L126.103 147.108L127.356 146.159L126.57 143.894L125.85 144.122L124.987 141.655L124.55 141.163L125.003 140.764L124.7 139.749L123.976 139.451L123.458 138.542L122.408 138.187L122.151 137.081L122.887 136.036L123.792 135.728L123.696 135.031L125.026 134.815L125.463 135.922L126.402 136.523L126.762 134.868L127.732 134.829L128.203 135.742L127.693 135.891L127.659 137.094L128.705 137.12L128.548 136.15L129.675 135.43H130.307L132.051 133.942L134.163 132.559L138.091 133.955L139.333 134.495L143.204 136.584L151.234 141.69L151.471 142.362L150.831 143.793L150.931 144.632L152.41 145.694L154.89 147.767L159.187 152.246L162.425 155.105L167.296 159.677L172.16 163.714L175.724 167.185L178.956 171.165L179.297 170.172L177.668 169.342L177.955 168.819L180.281 170.08L182.056 171.429L181.876 171.802L179.902 170.699L179.331 171.565L183.156 175.661L180.714 178.944L179.312 181.427L178.361 183.396L178.258 184.992L178.361 186.636L179.626 189.458L181.412 191.388L184.329 193.3L183.612 194.738L182.888 194.316L182.163 195.512L178.837 193.692L175.533 199.364L176.641 200.169L177.008 201.193L176.261 201.919L176.399 206.278L173.283 206.247L173.272 205.121L171.562 205.099L169.849 204.694L168.569 204.606L168.523 203.032L167.76 202.636L165.487 202.781L164.817 203.428L162.938 204.215L162.617 203.217L159.873 203.274L159.788 202.83H158.999L158.688 203.639L159.282 205.979L158.604 206.208L158.47 207.017L158.681 208.328L158.362 209.163L157.025 209.322L157.163 211.042L156.255 211.508L155.262 211.635L154.878 213.347L155.166 213.782L156.3 213.804L156.032 216.286L156.473 217.764L156.511 220.818L156.699 221.284Z"  stroke="black" /><path d="M132.235 212.375L131.239 213.074L131.415 213.769L129.445 214.57L129.702 215.947L130.165 216.163L131.196 215.622L131.821 217.958L132.112 217.835L132.159 219.52L132.89 219.687L132.722 220.483L134.174 220.998L134.5 220.087L137.973 221.007L138.413 221.971L139.061 221.218L140.763 221.663L140.64 222.754L139.325 222.424L138.67 222.631L138.413 223.876L139.203 225.223L140.372 225.438L140.333 226.054L142.729 226.283L142.89 225.39L143.538 225.394L144.469 226.024L143.457 229.716L143.036 230.905L142.323 230.465L142.116 231.173L141.023 229.839L140.563 230.222L139.571 232.52L138.896 233.052L138.735 232.37L137.628 232.498L137.624 233.361L137.106 233.612L136.742 233.163L135.608 232.784L135.991 231.877L135.658 231.134L135.205 231.38L135.079 232.172L134.47 231.248L134.738 232.595L133.439 232.573L132.745 233.462L131.802 234.065L131.511 235.492L129.372 236.385L128.471 236.367L126.413 237.257L122.998 236.006L121.323 235.844L120.143 235.214L119.012 233.216L118.671 231.349L117.69 230.645L117.05 229.549L117.824 228.202L116.759 228.185L115.364 227.582L114.256 228.048L112.37 226.49L112.244 225.513L111.205 225.817L109.603 225.337L109.542 225.685L107.495 225.773L107.445 225.276L106.253 225.434L104.996 224.435L104.303 224.21L102.624 224.206L102.654 224.571L101.094 225.007L101.183 225.557L100.178 226.156L100.47 226.565L98.5152 227.278L98.086 225.262L97.2965 224.897L97.3116 225.931L96.9439 226.125L96.3612 225.179L95.3955 226.257L95.4721 226.741L94.5638 226.952L93.5252 227.63L93.5748 228.427L92.7776 228.343L92.6819 227.546L91.4017 227.128L90.8689 228.022L90.1753 228.052L89.5162 227.256L88.9106 227.621L88.7612 226.723L88.2016 227.185L87.5077 226.358L86.726 227.067L86.0437 226.6L86.4423 225.526L85.7945 225.341L85.6911 223.753L84.2999 221.83L83.8707 222.402L82.9853 221.328L82.349 222.943L81.3142 222.397L81.9044 220.769L81.8545 219.084L82.3336 218.424L82.349 217.57L83.4145 217.271L83.9357 216.387L83.3877 215.036L82.5867 215.129L82.1919 214.099L81.6897 214.187L81.1761 213.466L81.5708 212.678L80.5286 210.914L81.0383 210.861L79.969 208.319L79.1064 206.933L77.7766 208.433L77.9682 209.401L76.3509 209.74L75.2968 209.546L75.0708 207.734L75.2469 207.448L74.7488 206.133L74.9327 205.257L74.5034 204.276L74.5533 203.401L75.7607 201.959L75.7337 201.15L76.2205 201.097L76.0212 198.753L75.6265 198.7L75.3428 197.746L75.5344 195.244L75.431 194.25L73.6412 194.787L71.993 194.532L71.8169 193.182L72.6063 193.019L71.7937 191.502L70.3029 191.933L70.1152 191.559L69.3332 191.885L69.3602 190.64L69.0688 190.372L69.3141 188.28L68.9001 186.781L68.9577 186.024L69.4903 186.055L69.5978 186.719L70.5827 186.561L70.6709 185.919L72.6102 185.26L72.2998 184.565L71.238 184.354L70.8319 183.137L72.0583 182.627L73.457 181.655L73.7294 182.301L75.6532 181.22L75.7952 181.532L77.6272 180.675L77.3819 180.073L78.3553 179.431L78.4589 179.792L80.3905 179.11L80.5437 178.557L80.0225 177.458L79.1219 176.566L80.678 175.766L80.1757 174.729L81.5786 174.417L80.7086 173.973L80.9578 172.932L81.8967 172.391L81.6783 171.6L82.9968 170.845L83.2651 170.027L82.0654 169.491L82.3452 168.661L81.7856 168.718L80.5208 167.914L80.6204 166.715L79.7774 166.504L79.7887 165.999L81.1416 165.735L82.2763 164.285L83.9548 164.272L84.1312 163.472L84.7674 163.74L84.2767 162.879L84.3266 161.904L83.1614 161.891L81.5096 161.395L80.2218 160.446L79.8769 159.409L80.0916 157.599L83.8321 155.487L84.4187 155.785L85.2465 155.307L85.7102 155.988L86.2891 155.359L87.7071 155.627L89.3169 154.832L90.7617 153.765L90.5968 152.623L90.7617 151.394L93.2415 148.816L95.4068 148.254L95.5488 147.161L96.3612 146.181L98.5689 144.662L98.7489 145.25L98.3658 145.834L99.8604 146.098L100.32 145.786L101.597 145.804L101.831 145.193L102.973 145.286L103.107 143.934L102.509 143.56L103.701 141.44L104.368 141.365L104.184 139.679L104.87 139.947L105.874 139.306L105.947 140.333L106.679 141.655L106.848 143.907L107.886 143.652L107.235 144.386L107.579 145.422L108.304 145.216L108.725 144.487L109.316 144.412L109.389 143.209L109.944 143.007L109.71 145.211L111.546 144.763L111.623 144.056L112.566 143.191L113.194 143.108L113.164 142.054L113.593 141.598L114.467 142.748L115.617 142.366L115.678 141.896L116.747 141.155L116.575 140.518L117.675 140.742L118.135 140.417L119.246 141.023L119.583 140.044L120.377 140.737L121.787 140.11L121.776 139.302L122.309 138.999L122.408 138.187L123.458 138.542L123.976 139.451L124.7 139.749L125.003 140.764L124.55 141.163L124.987 141.655L125.85 144.122L126.57 143.894L127.356 146.159L126.103 147.108L127.122 148.579L127.843 148.364L127.701 149.22L126.934 149.391L127.073 151.653L127.831 152.689L127.314 152.834L127.628 153.576L128.824 153.528L129.725 155.799L129.368 156.088L129.962 158.64L130.782 159.172L131.45 159L132.262 161.891L132.273 162.906L131.859 163.029L132.212 164.557L132.25 166.741L131.101 167.518L131.572 168.727L131.128 168.925L131.307 169.799L130.564 169.957L130.02 169.351L126.118 171.099L126.961 172.4L126.482 172.743L126.237 174.347L126.98 174.694L128.092 174.637L128.552 175.265L128.605 176.197L127.801 177.744L128.529 177.977L129.506 180.706L130.587 180.679L130.802 181.664L130.093 182.073L130.825 183.181L131.545 183.809L131.361 184.301L132.093 184.736L131.825 185.888L132.53 186.908L132.898 188.082L133.289 188.258L133.592 189.255L132.404 189.911L132.576 190.873L131.722 191.792L131.062 191.643L131.131 193.195L132.224 193.292L132.515 194.131L132.902 194.044L133.86 195.319L134.397 195.09L134.929 197.148L133.983 197.245L133.665 198.265L133.837 199.105L134.833 201.264L135.27 201.651L134.535 201.924L134.738 202.843L135.734 202.667L135.344 203.318L135.32 204.36L134.151 204.184L133.297 206.265L132.917 206.788L132.009 209.273L130.802 209.973L131.599 211.926L132.062 211.587L132.235 212.375Z"  stroke="black" /><path d="M196.731 321.373L196.038 320.442L196.797 319.921L196.67 319.087L197.004 318.694L196.524 316.868L196.099 317.066L195.459 316.387L196.551 316.188L196.881 314.728L197.889 313.916L197.912 313.064L197.241 310.96L196.156 311.472L196.34 311.798L195.03 312.976L193.918 311.895L193.485 313.32H192.872L192.883 313.881L192.228 313.925L191.711 313.078L191.86 312.213L192.676 312.345L193.404 311.75L193.362 309.91L193.707 309.636L193.696 305.552L194.428 304.727L193.792 304.294L193.025 303.13L192.776 303.258L192.393 302.085L191.829 302.645L191.235 302.609L190.963 303.156L190.48 302.923L189.951 303.474L188.736 303.712L188.966 302.729L188.549 301.458L189.235 300.911L189.242 300.294L190.641 299.853L190.315 298.107L190.687 297.375L191.389 297.317L191.58 296.638L192.949 296.003L191.856 295.218L192.63 294.416L193.577 294.239L193.163 293.803L194.581 293.454L194.566 293.154L195.949 292.758L198.054 291.338L197.333 290.875L197.053 291.338L196.536 290.769L194.83 290.447L194.274 290.02L193.025 290.368L192.853 290.972L192.067 291.25L191.243 290.319L190.687 288.829L191.511 288.366L191.53 287.638L193.592 286.969L194.274 286.373L194.355 286.999L195.045 286.991L195.846 286.351L195.723 285.271L194.758 284.394L194.413 283.548L194.85 283.327L194.156 282.075L194.229 281.723L193.251 280.409L193.807 279.638L192.933 279.202L192.542 278.54L192.006 279.347L191.726 278.902L190.871 279.078L191.204 279.739L190.45 280.462L189.495 279.797L188.951 278.073L188.2 278.267L187.747 278.871L187.046 277.403L186.195 277.685L185.965 277.24L184.275 277.857L183.608 278.408L183.21 278.016L181.305 278.395L181.094 277.39L180.431 276.222L178.817 276.658L178.369 277.275L178.764 278.315L177.74 278.62L176.901 276.108L175.322 277.13L174.621 275.085L173.436 274.997L173.363 275.949L172.317 276.628L172.137 277.385L171.087 277.641L172.164 280.078L171.052 280.021L170.175 278.734L170.132 279.263L169.113 279.99L167.714 279.563L168.841 277.126L168.944 274.873L168.684 273.767L166.948 271.343L165.576 268.488V266.937L166.384 265.531L167.86 263.752L168.58 262.659L168.86 261.113L168.527 259.351L167.63 256.293V255.333L168.002 254.206L168.684 253.091L170.685 251.708L174.755 250.392L175.824 249.881L176.771 248.872L177.668 247.348L179.611 243.522L180.036 241.924L179.894 240.471L179.162 238.758L177.859 236.957L176.131 235.135L175.51 233.969V232.493L175.878 231.741L177.307 230.72L179.201 230.174L181.849 229.998L184.9 229.888L187.334 229.017L188.755 228.207L193.588 223.652L194.819 221.966L196.191 219.432L196.471 218.011L196.364 215.92L195.348 212.656L194.539 210.589L194.328 209.273L194.363 202.724L193.98 200.279L193.451 199.012L192.68 198.023L190.921 196.611L184.329 193.3L181.412 191.388L179.626 189.458L178.361 186.636L178.258 184.992L178.361 183.396L179.312 181.427L180.714 178.944L183.156 175.661L187.782 177.977L193.792 179.77L203.136 182.416L205.708 183.796L207.781 185.436L229.527 202.245L235.863 207.043L238.642 209.207L240.458 211.13L244.494 216.673L262.707 248.392L274.711 263.668L283.166 272.749L284.664 276.033L300.466 296.55L304.847 303.386L308.948 314.847L312.635 332.368L314.096 344.487L314.72 357.534L314.302 366.746L313.467 371.099L311.102 375.642L307.066 379.912L302.651 384.788L302.544 386.406L302.858 387.975L306.783 398.243L299.612 402.693L294.35 391.849L291.782 389.536L288.8 389.072L258.284 388.077L251.55 375.739L251.221 371.019L252.175 366.551L252.416 366.45L252.596 364.652L253.574 364.501L253.39 362.509L254.16 359.509L254.21 357.715L254.03 356.12L254.202 353.802L254.555 353.179L254.796 351.063L253.842 347.698L253.884 346.116L252.661 345.922L252.566 345.048L251.669 344.553L251.178 343.432L250.749 344.09L250.036 343.975L250.155 343.361L249.381 343.401L249.438 342.769L250.228 342.169L249.231 341.122L249.258 340.023L248.779 339.453L246.767 338.142L246.008 338.023L245.628 338.447L244.494 336.72L243.459 336.672L242.597 335.944L242.888 335.233L241.796 333.824L241.232 332.606L235.962 327.773L233.954 326.285L232.287 325.389L230.501 324.683L229.152 324.387L227.914 324.511L225.423 323.778L225.089 324.502L224.035 323.849L222.268 323.443L219.904 323.244L217.742 323.209L210.54 323.456L209.755 322.348L208.927 320.305L205.991 320.349L203.653 320.014L203.404 320.508L200.545 320.464L200.165 320.949L198.46 320.958L196.731 321.373ZM299.489 241.571L300.413 238.3L301.639 236.662L303.352 236.077L306.641 236.125L309.803 236.931L312.283 238.243L317.495 239.542L318.177 240.858L318.61 243.579L318.445 250.18L318.055 251.664L315.011 260.091L313.957 261.663L308.481 262.386L307.078 262.857L305.675 262.861L304.008 262.223L302.076 259.311L300.807 255.928L299.93 252.078L299.317 247.819L299.098 244.433L299.489 241.571ZM282.779 232.238L284.787 231.6L286.841 231.776L291.828 233.819L294.062 234.809L294.936 236.328L295.154 238.428L294.583 245.257L293.756 248.41L292.747 249.343L291.387 249.519L289.988 248.995L288.022 246.719L284.611 241.743L283.476 239.713L282.756 237.842L282.296 233.902L282.779 232.238Z"  stroke="black" /><path d="M38.5722 339.03L40.04 338.76L40.2049 340.239L41.5769 340.014L42.2784 338.875L43.708 339.815L43.1523 340.314L42.5276 340.177L42.6732 341.493L43.2862 341.286L43.6887 342.712L44.3519 343.105L44.1411 342.328L44.8385 342.39L47.2034 341.37L47.7131 341.18L47.6364 342.129L48.2536 342.902L48.1577 344.258L47.3834 347.397L47.28 349.212L46.6055 351.363L46.3334 353.25L46.4445 354.19L49.0277 355.259L48.9549 356.514L50.1659 356.73L50.5915 355.864L50.7409 357.26L51.1395 357.737L51.929 356.823L54.0908 356.28L55.0564 356.288L58.2031 355.864L58.4867 356.739L59.4565 356.35L59.4372 355.71L61.7561 355.334L62.0243 355.957L62.5533 355.577L64.7417 356.266L65.4813 355.754L65.4546 356.584L66.248 356.341L66.7039 355.091L65.991 353.722L65.3319 353.952L64.0327 353.117L64.0134 351.898L64.6574 351.571L67.1485 347.795L68.241 349.155L68.4516 350.118L70.0614 349.526L71.0618 349.553L72.9512 350.184L72.3726 353.112L71.947 353.585L70.7627 356.196L70.0308 357.141L70.0959 357.803L70.7476 358.466L72.0468 356.973L73.1659 357.11L73.5301 356.47L75.3544 356.567L75.7798 357.618L76.5271 356.854L78.4129 357.03L78.3362 355.688L77.9759 354.804L78.0909 353.722L77.3549 352.613L77.8072 350.312L78.9609 350.864L78.6621 351.787L80.7775 352.883L81.6207 353.771L82.6556 353.854L82.5561 352.883L82.6823 350.551L83.0848 350.06L84.8518 350.193L85.4841 351.28L86.6838 352.123L87.6188 351.964L90.8766 351.858L91.233 351.421L93.18 351.156L96.6793 350.211L97.6452 349.698L99.6076 347.345L100.945 346.218L102.141 347.676L104.115 347.022L104.191 347.971L105.127 348.382L105.813 348.276L106.441 350.202L106.897 350.056L107.15 351.244L106.648 350.957L107.457 353.881L109.829 354.009L110.013 354.588L110.857 354.87L111.73 354.544L111.841 355.008L113.056 355.22L112.846 356.889L113.639 356.903L114.018 357.459L114.724 357.371L115.187 358.961L116.41 358.581L116.559 359.557L117.23 359.43L117.295 358.78L118.108 358.758L118.257 359.2L118.978 358.966L119.062 357.534L119.457 357.512L119.695 356.536L119.434 353.916L119.058 353.877L119.097 351.31L120.779 350.719L120.741 352.026L121.143 352.022L121.753 353.938L122.661 354.411L123.121 354.106L123.198 353.073L123.964 353.064L124.049 353.766L125.984 353.581L126.199 354.159L127.72 353.444L128.104 354.217L129.322 354.226L129.79 353.793L130.744 354.76L131.725 354.676L132.27 355.043L133.243 354.376L134.251 354.168L135.286 352.688L136.121 353.329L136.455 352.662L137.796 354.354L138.275 357.3L138.843 358.334L139.038 360.101L139.613 362.314L140.705 362.42L141.514 363.432L141.951 363.512L143.545 364.877L144.833 365.253L144.638 366.118L144.994 366.896L145.013 368.898L144.741 369.53L144.756 370.838L145.328 370.94L145.182 372.504L145.431 373.604L145.251 375.248L145.58 376.605L145.726 378.405L143.967 378.382L144.02 379.531L145.262 381.812L146.316 382.219V383.298L147.455 383.28L147.547 384.049L148.907 383.987L149.015 382.038L149.659 381.711L150.896 381.853L150.739 383.293L149.927 383.209L150.011 384.204L151.057 385.791L153.142 386.37L153.644 386.278L154.016 386.945L153.909 388.466L155.055 388.386L155.396 386.998L156.902 387.405L159.945 387.621L161.218 391.764L162.26 392.485L162.617 392.225L163.993 394.891L167.676 402.918L171.451 410.319L157.006 419.899L151.667 424.382L139.234 438.557L137.148 439.486L135.029 440L129.537 439.876L119.702 438.995L115.184 439.336L114.344 432.172L114.018 431.739L114.087 430.455L113.531 430.247L113.359 428.786L112.984 428.715L112.761 427.542L113.474 426.564L113.091 425.502L113.995 424.82L113.93 423.506L114.463 422.483L113.995 421.523L114.302 421.125L113.834 419.735L114.302 419.168L113.398 418.19L113.029 418.717L111.516 416.983L110.151 414.876L106.943 412.951L106.487 412.456L104.885 411.677L103.509 410.514L103.065 407.603L102.632 406.046L102.026 404.997L101.831 403.431L101.394 402.737L101.056 403.104L99.5654 399.805L98.3886 399.446L96.1312 399.455L94.6328 400.415L94.3758 401.348L94.694 403.971L93.7666 404.068L92.3561 402.047L92.1146 401.224L91.716 402.003L90.846 401.98L90.6889 402.856L90.0411 403.449L89.0829 403.693L87.6227 404.559L86.6072 403.582L86.5534 402.697L86.0514 403.113L84.5259 403.361L83.7825 404.117L83.767 402.883L82.4257 402.653L81.5634 402.003L79.2024 401.817L78.2364 402.754L77.7077 402.206L76.9717 402.604L75.8104 402.613L74.6261 402.113L73.4956 402.011L71.7863 399.393L72.5642 398.482L74.0015 398.619L74.3656 398.318L74.2198 396.833L74.8138 390.518L75.3696 388.55L75.9636 387.189L77.3549 385.075V383.254L77.0293 384.032L76.4849 383.797L76.1133 382.657L76.5808 382.135L75.753 381.039L75.3045 381.45L74.6722 381.171L72.729 380.92L71.9318 381.3L72.5066 380.407L72.6218 378.36L73.5301 376.902L72.8707 375.836L72.568 376.221L71.104 375.355L70.6671 374.409L70.046 375.377L68.3598 376.142L67.666 375.801L66.4012 374.086L66.4089 373.286L61.6563 376.358L57.9426 376.349L56.1566 377.666L56.4747 378.329L56.0761 378.546L56.578 380.385L55.0029 381.189L52.3621 382.847L52.9523 385.017L51.9061 384.752L51.4692 383.925L50.4879 384.271L50.9824 384.947L50.5761 385.314L50.2773 386.605L49.8632 386.826L50.2464 387.445L51.5343 386.919L51.8717 388.568L49.9244 389.169L49.5757 387.494L47.7591 383.78L43.5737 381.795L43.4436 381.11L42.4777 381.552L41.3853 382.962L40.4235 384.607L39.6224 383.457L37.9858 386.375L36.97 385.928L37.4761 384.832L36.4835 383.727L37.3956 382.67L36.4758 382.396L36.7134 381.512L37.5067 380.164L38.2769 380.097L38.8558 378.073L39.446 378.347L39.7451 377.503L40.569 377.33L41.2552 375.73L41.6805 375.686L42.2668 374.745L43.1561 375.275L43.6121 374.572L42.5006 373.68L43.7196 372.027L43.9572 371.174L43.3248 370.608L44.3748 368.774L43.5586 368.169L44.3748 367.311L45.1144 367.855L44.9305 367.077L45.5094 366.649L44.8272 366.096L45.3906 365.314L44.6009 364.608L44.2905 363.869L42.5312 364.055L41.761 363.781L41.8222 361.886L40.8566 361.638L37.7711 361.32L37.5183 359.756L36.8438 359.067L37.4491 357.618L37.4913 356.726L38.2924 356.151L39.0973 356.275L39.1163 355.334L40.182 355.736L40.7184 354.963L40.7339 354.102L39.1929 354.018L39.3694 352.392L39.4805 344.765L39.6991 343.652L38.7792 342.398L38.2808 341.224L38.595 341.118L38.5722 339.03ZM157.09 437.578L157.619 437.737L157.125 438.264L157.09 437.578ZM155.929 434.16L157.075 434.235L157.707 435.032L156.73 435.67L155.108 434.758L155.105 434.107L155.929 434.16ZM151.605 429.193L152.299 429.37L151.563 429.892L151.605 429.193Z"  stroke="black" /><path d="M128.747 260.879L129.675 263.113L130.104 263.183L130.863 264.879L130.798 265.716L131.465 266.087L131.951 267.889L132.296 268.003L132.871 269.246L132.308 269.686L133.776 271.273L134.489 272.859L134.305 273.185L134.853 274.38L134.546 274.538L135.278 275.935L135.06 276.05L135.842 277.487L136.8 277.54L136.137 278.293L136.995 279.779L137.616 279.404L137.888 280.14L136.566 281.626L136.417 281.167L135.55 281.564L136.325 284.284L138.268 283.719L138.459 284.403L139.471 284.094L140.996 288.062L142.024 291.409L141.64 291.959L141.138 291.682L140.222 292.136L139.908 293.675L139.295 294.081L139.931 295.081L139.743 295.642L137.961 296.228L138.214 297.225L136.903 298.239L134.148 299.029L133.6 297.697L131.913 298.552L131.848 303.99L131.453 305.807L131.549 309.032L131.354 309.486L131.515 310.872L131.469 315.01L131.289 315.862L133.17 315.672L133.967 315.319L134.37 315.641L133.151 316.991L132.71 318.487L130.537 321.902L129.747 322.273L129.552 322.794L129.587 324.454L129.284 326.903L129.717 327.874L130.319 327.631L131.656 327.861L134.232 329.366L136.302 329.591L138.356 328.902L138.701 329.494L139.107 331.63L138.984 333.418L139.498 335.634L139.571 336.897L139.333 338.517L139.395 339.546L140.219 340.16L139.778 340.919L139.023 341.33L139.375 343.141L139.444 344.743L138.528 344.624L137.984 345.158L137.252 345.202L137.52 345.737L136.275 346.262L136.562 347.15L136.551 348.771L137.436 349.659L137.624 350.264L137.355 351.514L136.455 352.662L136.121 353.329L135.286 352.688L134.251 354.168L133.243 354.376L132.27 355.043L131.725 354.676L130.744 354.76L129.79 353.793L129.322 354.226L128.104 354.217L127.72 353.444L126.199 354.159L125.984 353.581L124.049 353.766L123.964 353.064L123.198 353.073L123.121 354.106L122.661 354.411L121.753 353.938L121.143 352.022L120.741 352.026L120.779 350.719L119.097 351.31L119.058 353.877L119.434 353.916L119.695 356.536L119.457 357.512L119.062 357.534L118.978 358.966L118.257 359.2L118.108 358.758L117.295 358.78L117.23 359.43L116.559 359.557L116.41 358.581L115.187 358.961L114.724 357.371L114.018 357.459L113.639 356.903L112.846 356.889L113.056 355.22L111.841 355.008L111.73 354.544L110.857 354.87L110.013 354.588L109.829 354.009L107.457 353.881L106.648 350.957L107.15 351.244L106.897 350.056L106.441 350.202L105.813 348.276L105.127 348.382L104.191 347.971L104.115 347.022L102.141 347.676L100.945 346.218L99.6076 347.345L97.6452 349.698L96.6793 350.211L93.18 351.156L91.233 351.421L90.8766 351.858L87.6188 351.964L86.6838 352.123L85.4841 351.28L84.8518 350.193L83.0848 350.06L82.6823 350.551L82.5561 352.883L82.6556 353.854L81.6207 353.771L80.7775 352.883L78.6621 351.787L78.9609 350.864L77.8072 350.312L77.3549 352.613L78.0909 353.722L77.9759 354.804L78.3362 355.688L78.4129 357.03L76.5271 356.854L75.7798 357.618L75.3544 356.567L73.5301 356.47L73.1659 357.11L72.0468 356.973L70.7476 358.466L70.0959 357.803L70.0308 357.141L70.7627 356.196L71.947 353.585L72.3726 353.112L72.9512 350.184L71.0618 349.553L70.0614 349.526L68.4516 350.118L68.241 349.155L67.1485 347.795L64.6574 351.571L64.0134 351.898L64.0327 353.117L65.3319 353.952L65.991 353.722L66.7039 355.091L66.248 356.341L65.4546 356.584L65.4813 355.754L64.7417 356.266L62.5533 355.577L62.0243 355.957L61.7561 355.334L59.4372 355.71L59.4565 356.35L58.4867 356.739L58.2031 355.864L55.0564 356.288L54.0908 356.28L51.929 356.823L51.1395 357.737L50.7409 357.26L50.5915 355.864L50.1659 356.73L48.9549 356.514L49.0277 355.259L46.4445 354.19L46.3334 353.25L46.6055 351.363L47.28 349.212L47.3834 347.397L48.1577 344.258L48.2536 342.902L47.6364 342.129L47.7131 341.18L47.2034 341.37L47.1651 340.676L48.6291 340.204L49.0277 338.049L49.4685 336.535L50.6105 336.756L51.4692 336.38L51.2239 335.308L52.1399 334.199L51.3579 332.001L52.3469 331.701L52.5424 332.147L53.5389 332.023L54.1558 333.833L55.2827 333.502L55.1562 334.765L55.8768 335.767L56.1067 336.747L57.4863 337.246L59.4066 337.272L60.5602 337.007L60.5986 336.358L61.2808 336.098L61.1237 335.458L61.7293 335.4L61.8672 334.628L63.7797 334.676L63.7414 333.935L65.263 333.749L66.3475 333.396L65.8761 332.376L65.8149 330.231L66.8114 330.664L66.9531 327.75L66.8266 327.388L67.0796 322.626L68.1718 322.573L68.1988 317.825L67.6048 316.444L65.1172 313.338L63.0514 311.392L64.1477 310.51L64.6075 311.233L66.0487 311.048L66.2058 309.204L67.022 309.297L67.1179 308.485L66.4241 306.478L65.8992 305.887L65.1403 305.799L65.9949 304.294L64.3544 303.073L64.2626 301.674L63.4999 301.304L63.1435 302.305L62.1891 300.841L61.7944 299.853L62.7449 299.161L63.3235 298.283L63.1625 297.666L63.7874 296.995L65.0905 297.044L65.5351 298.014L65.1133 299.284L65.5618 300.06L66.5812 299.954L67.3556 301.048L67.5394 299.712L69.3524 299.47L69.4214 299.954L72.0583 300.157L72.0007 299.297L72.748 299.716L74.1738 299.677L74.6912 298.803L74.3157 298.781L74.2697 296.268L73.1698 296.074L72.9782 294.967L72.108 292.85L71.7592 292.97L70.5138 292.233L69.0421 290.584L67.8424 291.281L67.229 291.016L66.8765 289.177L67.2712 288.168L66.3783 286.387L66.9071 286.157L66.9991 285.262L66.4817 284.253L67.21 284.588L68.099 283.812L68.0185 283.04L69.452 281.379L70.5099 279.625L71.0003 280.409L71.4833 279.977L71.9279 280.749L72.8172 281.163L74.0704 282.772L74.6722 282.794L75.5 283.816L75.8448 283.257L76.2244 284.35L76.8989 284.716L78.5085 284.495L78.589 285.152L79.3019 284.945L79.6815 286.232L80.6741 285.739L81.1416 287.079L81.613 286.938L81.7779 287.634L82.2454 287.511L82.3069 286.523L82.6787 286.528L82.6939 284.399L82.0193 284.42L82.0348 283.332L83.4605 283.812L85.0932 283.482L85.0127 282.441L85.4535 282.432L85.3576 280.956L86.4922 281.136L86.4729 280.682L87.5728 280.872L87.159 278.831L87.7721 278.408L87.527 277.443L88.1057 277.024L88.7725 277.707L90.1447 277.139L90.156 275.081H89.5928L89.6003 274.102L89.1865 273.93L89.0561 272.295L89.5507 272.331L89.635 268.03L93.1494 269.978L94.5101 269.462L95.0542 268.964L94.7017 270.105L96.3077 269.933L96.8901 270.894L100.271 269.902L102.321 269.642L101.984 271.462L101.106 274.291L100.596 276.685L100.478 278.47L101.248 278.443L103.946 277.646L104.479 277.042L104.759 274.565L105.59 274.366L106.882 274.675L107.1 273.243L105.452 273L107.143 272.705L107.56 271.454L109.431 272.013L110.607 272.119L110.584 274.058L111.588 274.023L111.316 272.15L112.144 270.991L112.681 271.224L112.727 270.634L116.931 271.788L118.721 269.325L117.809 268.343L117.15 268.567L116.464 267.21L115.835 267.774L115.67 267.157L116.307 266.276L116.042 264.8L116.736 265.435L117.713 265.324L117.521 264.84L118.158 264.364L118.625 264.783L120.913 264.192L122.569 263.615L126.643 261.888L127.149 262.853L127.943 262.513L128.372 261.077L128.747 260.879Z"  stroke="black" /><path d="M128.747 260.879L128.372 261.077L127.943 262.513L127.149 262.853L126.643 261.888L122.569 263.615L120.913 264.192L118.625 264.783L118.158 264.364L117.521 264.84L117.713 265.324L116.736 265.435L116.042 264.8L116.307 266.276L115.67 267.157L115.835 267.774L116.464 267.21L117.15 268.567L117.809 268.343L118.721 269.325L116.931 271.788L112.727 270.634L112.681 271.224L112.144 270.991L111.316 272.15L111.588 274.023L110.584 274.058L110.607 272.119L109.431 272.013L107.56 271.454L107.143 272.705L105.452 273L107.1 273.243L106.882 274.675L105.59 274.366L104.759 274.565L104.479 277.042L103.946 277.646L101.248 278.443L100.478 278.47L100.596 276.685L101.106 274.291L101.984 271.462L102.321 269.642L100.271 269.902L96.8901 270.894L96.3077 269.933L94.7017 270.105L95.0542 268.964L94.5101 269.462L93.1494 269.978L89.635 268.03L89.5507 272.331L89.0561 272.295L89.1865 273.93L89.6003 274.102L89.5928 275.081H90.156L90.1447 277.139L88.7725 277.707L88.1057 277.024L87.527 277.443L87.7721 278.408L87.159 278.831L87.5728 280.872L86.4729 280.682L86.4922 281.136L85.3576 280.956L85.4535 282.432L85.0127 282.441L85.0932 283.482L83.4605 283.812L82.0348 283.332L82.0193 284.42L82.6939 284.399L82.6787 286.528L82.3069 286.523L82.2454 287.511L81.7779 287.634L81.613 286.938L81.1416 287.079L80.6741 285.739L79.6815 286.232L79.3019 284.945L78.589 285.152L78.5085 284.495L76.8989 284.716L76.2244 284.35L75.8448 283.257L75.5 283.816L74.6722 282.794L74.0704 282.772L72.8172 281.163L71.9279 280.749L71.4833 279.977L71.0003 280.409L70.5099 279.625L69.452 281.379L68.0185 283.04L68.099 283.812L67.21 284.588L66.4817 284.253L66.9991 285.262L66.9071 286.157L66.3783 286.387L67.2712 288.168L66.8765 289.177L67.229 291.016L67.8424 291.281L69.0421 290.584L70.5138 292.233L71.7592 292.97L72.108 292.85L72.9782 294.967L73.1698 296.074L74.2697 296.268L74.3157 298.781L74.6912 298.803L74.1738 299.677L72.748 299.716L72.0007 299.297L72.0583 300.157L69.4214 299.954L69.3524 299.47L67.5394 299.712L67.3556 301.048L66.5812 299.954L65.5618 300.06L65.1133 299.284L65.5351 298.014L65.0905 297.044L63.7874 296.995L63.1625 297.666L63.3235 298.283L62.7449 299.161L61.7944 299.853L62.1891 300.841L63.1435 302.305L63.4999 301.304L64.2626 301.674L64.3544 303.073L65.9949 304.294L65.1403 305.799L65.8992 305.887L66.4241 306.478L67.1179 308.485L67.022 309.297L66.2058 309.204L66.0487 311.048L64.6075 311.233L64.1477 310.51L63.0514 311.392L65.1172 313.338L67.6048 316.444L68.1988 317.825L68.1718 322.573L67.0796 322.626L66.8266 327.388L66.9531 327.75L66.8114 330.664L65.8149 330.231L65.8761 332.376L66.3475 333.396L65.263 333.749L63.7414 333.935L63.7797 334.676L61.8672 334.628L61.7293 335.4L61.1237 335.458L61.2808 336.098L60.5986 336.358L60.5602 337.007L59.4066 337.272L57.4863 337.246L56.1067 336.747L55.8768 335.767L55.1562 334.765L55.2827 333.502L54.1558 333.833L53.5389 332.023L52.5424 332.147L52.3469 331.701L51.3579 332.001L52.1399 334.199L51.2239 335.308L51.4692 336.38L50.6105 336.756L49.4685 336.535L49.0277 338.049L48.6291 340.204L47.1651 340.676L47.2034 341.37L44.8385 342.39L44.1411 342.328L44.3519 343.105L43.6887 342.712L43.2862 341.286L42.6732 341.493L42.5276 340.177L43.1523 340.314L43.708 339.815L42.2784 338.875L41.5769 340.014L40.2049 340.239L40.04 338.76L38.5722 339.03L38.1967 339.007L38.0393 337.369L37.4147 337.294L37.1809 336.124L38.028 335.944L37.4339 334.425L37.7366 333.988L37.112 332.39L37.5834 331.013L38.7486 330.893L39.6147 330.346L39.6299 329.216L40.1244 328.991L39.7029 327.945L39.2927 328.077L38.6832 324.723L37.9858 323.734L38.0509 322.507L36.8589 322.768L36.6712 321.991L37.2807 321.828L37.292 319.506L37.0083 318.019L37.2498 317.768L36.7134 316.908L36.583 315.473L35.023 315.456L34.7854 314.851L31.2594 314.829L29.3317 314.666L29.7838 313.505L29.6305 313.131L28.5803 312.804L27.9788 310.263L26.2961 309.645L25.9896 310.078L25.449 309.756L25.3418 311.551L26.0125 311.939L25.6828 314.282L21.9153 314.476L21.7621 315.112L22.9579 317.079L22.406 317.454L21.2218 317.079L20.5585 316.435L19.3476 316.329L19.1174 316.934L16.8983 316.065L14.9436 316.885L14.6486 316.118L14.6792 314.538L12.2838 314.335L12.0616 313.259L12.2763 311.392L12.4525 306.928L11.8355 306.209L11.0879 304.012L11.1378 303.042L10.651 302.266L10.4098 300.956L10.425 299.205L10.7814 297.582L11.594 294.848L11.8011 291.964L13.1808 291.902L13.2113 291.179L12.3681 289.856L12.4908 289.283L11.7129 288.811L10.9961 288.917L10.6436 287.427L9.75043 286.144L9.93433 285.284L9.48608 285.047L9.43231 286.104L8.45508 286.188L5.8642 285.571L6.1095 284.605L5.29297 284.795L5.46558 284.033L4.51117 283.891L4.33868 284.42L3.58752 284.399L3.5224 285.033L2.46442 284.883L1.98181 283.9L0.816467 283.905L0 282.97L0.306824 280.876L0.943115 280.581L1.49878 279.413L2.52588 278.589L3.80219 276.764L3.91718 275.261L4.28522 274.027L5.4079 272.436L6.74957 271.246L11.6897 270.757L13.3952 271.436L16.5725 270.709L20.271 268.792L26.4188 269.951L35.0385 272.357L37.0621 271.815L41.4773 271.727L44.5703 271.476L45.7622 269.929L45.6128 269.14L46.5517 269.026L46.8392 267.924L47.2954 267.884L47.4065 268.849L48.5946 268.497L49.4302 269.189L49.4685 270.273L50.1276 270.444L51.0014 269.713L51.8179 267.276L50.9248 266.761L50.9058 265.699L51.9483 265.051L51.9941 264.152L53.0176 263.936L53.3319 265.368L54.8648 265.391L55.2904 264.611L56.72 264.483L57.1531 265.324L57.6857 265.285L57.59 266.148L58.5289 266.109L58.157 264.791L59.3338 264.342L59.8281 263.033L60.7058 262.527L60.4376 261.76L60.6407 260.993L59.7898 261.328L59.6326 260.76L60.8017 260.289L60.2766 258.166L59.4256 258.426L59.4678 257.289L60.265 257.016L59.9356 255.994L59.1574 254.8L59.1075 254.069L60.311 253.558L60.1462 252.994L58.6248 253.545L58.4255 252.809L59.234 252.418L58.8663 251.396L58.9391 250.453L59.4755 250.37L59.3721 249.766L58.801 249.603L58.6593 248.978L57.885 249.106L57.8351 248.291L58.5518 248.533L58.1648 246.886L57.5591 242.892L56.739 238.19L56.7851 237.345L57.3141 237.23L57.2948 235.94L57.9925 235.892L58.0498 235.152L57.2757 235.139L56.7313 234.505L56.3559 233.352L57.0877 233.128L56.9959 231.737L57.2104 230.297L56.467 230.628L55.3707 230.073L56.2831 230.169L56.5513 225.958L56.9077 222.296L58.4101 222.226L59.5254 221.843L61.6411 221.469L62.1202 220.963L62.7793 219.427L61.9016 218.86L62.8215 215.058L63.5459 213.932L63.431 213.545L64.32 213.474L65.1365 214.834L65.7727 215.278L66.7116 219.229L68.5398 220.184L68.0952 219.568L68.8772 219.062L70.1036 217.21L71.1729 215.916L71.9241 215.762L72.568 216.074L72.6524 215.591L74.1087 216.391L74.6529 216.29L74.5418 217.408L75.5998 217.812L75.772 217.35L77.5236 218.31L77.4048 218.737L78.2136 219.141L78.8614 218.71L78.892 219.515L80.9308 219.529L81.8545 219.084L81.9044 220.77L81.3142 222.397L82.349 222.943L82.9853 221.328L83.8707 222.402L84.2999 221.83L85.6911 223.753L85.7945 225.341L86.4423 225.526L86.0437 226.6L86.726 227.067L87.5077 226.358L88.2016 227.185L88.7612 226.723L88.9106 227.621L89.5162 227.256L90.1753 228.052L90.8689 228.022L91.4017 227.128L92.6819 227.546L92.7776 228.343L93.5748 228.427L93.5252 227.63L94.5638 226.952L95.4721 226.741L95.3955 226.257L96.3612 225.179L96.9439 226.125L97.3116 225.931L97.2965 224.897L98.086 225.262L98.5152 227.278L100.47 226.565L100.178 226.156L101.183 225.557L101.094 225.007L102.654 224.571L102.624 224.206L104.303 224.21L104.996 224.435L106.253 225.434L107.445 225.276L107.495 225.773L109.542 225.685L107.648 227.67L107.261 229.311L106.096 229.853L105.613 232.163L106.016 232.472L107.813 232.216L108.304 233.827L108.687 233.216L109.158 233.669L109.534 235.082L110.362 235.971L110.596 237.38L110.205 237.578L110.653 238.885L110.443 239.828L111.056 240.585L111.481 241.712L110.979 242.562L112.206 243.98L112.435 244.781L111.987 245.16L112.462 246.036L112.999 246.058L114.371 247.877L115.939 249.616L117.771 249.317L118.679 248.603L120.001 247.027L120.085 246.331L120.749 246.124L121.484 246.736L122.328 248.348L124.531 251.523L125.145 253.052L126.666 255.769L127.145 256.95L127.295 258.188L128.747 260.879Z"  stroke="black" /><path d="M196.731 321.373L198.46 320.958L200.165 320.949L200.545 320.464L203.404 320.508L203.653 320.014L205.991 320.349L208.927 320.305L209.755 322.348L210.54 323.456L217.742 323.209L219.904 323.244L222.268 323.443L224.035 323.849L225.089 324.502L225.423 323.778L227.914 324.511L229.152 324.387L230.501 324.683L232.287 325.389L233.954 326.285L235.962 327.773L241.232 332.606L241.796 333.824L242.888 335.233L242.597 335.944L243.459 336.672L244.494 336.72L245.628 338.447L246.008 338.023L246.767 338.142L248.779 339.453L249.258 340.023L249.231 341.122L250.228 342.169L249.438 342.769L249.381 343.401L250.155 343.361L250.036 343.975L250.749 344.09L251.178 343.432L251.669 344.553L252.566 345.048L252.661 345.922L253.884 346.116L253.842 347.698L254.796 351.063L254.555 353.179L254.202 353.802L254.03 356.12L254.21 357.715L254.16 359.509L253.39 362.509L253.574 364.501L252.596 364.652L252.416 366.45L252.175 366.551L251.221 371.019L251.55 375.739L258.284 388.077L254.252 387.945L239.899 387.763L227.251 387.511L218.217 388.32L205.236 392.406L191.868 398.172L182.045 403.321L171.451 410.319L167.676 402.918L163.993 394.891L162.617 392.225L162.26 392.485L161.218 391.764L159.945 387.621L156.902 387.405L155.396 386.998L155.055 388.386L153.909 388.466L154.016 386.945L153.644 386.278L153.142 386.37L151.057 385.791L150.011 384.204L149.927 383.209L150.739 383.293L150.896 381.853L149.659 381.711L149.015 382.038L148.907 383.987L147.547 384.049L147.455 383.28L146.316 383.298V382.219L145.262 381.812L144.02 379.531L143.967 378.382L145.726 378.405L145.58 376.605L145.251 375.248L145.431 373.604L145.182 372.504L145.328 370.94L144.756 370.838L144.741 369.53L145.013 368.898L144.994 366.896L144.638 366.118L144.833 365.253L143.545 364.877L141.951 363.512L141.514 363.432L140.705 362.42L139.613 362.314L139.038 360.101L138.843 358.334L138.275 357.3L137.796 354.354L136.455 352.662L137.355 351.514L137.624 350.264L137.436 349.659L136.551 348.771L136.562 347.15L136.275 346.262L137.52 345.737L137.252 345.202L137.984 345.158L138.528 344.624L139.444 344.743L139.375 343.141L139.023 341.33L139.778 340.919L140.219 340.16L139.395 339.546L139.333 338.517L139.571 336.897L139.498 335.634L138.984 333.418L139.107 331.63L138.701 329.494L138.356 328.902L142.909 327.075L148.156 325.085L152.311 324.356L153.372 324.047L156.346 322.781L158.401 321.069L159.01 320.111L159.892 319.273L160.988 318.637L163.054 318.024L166.262 318.046L167.818 317.547L169.431 316.373L170.788 315.862L173.409 315.592L174.314 315.27L175.341 316.078L175.084 317.075L176.18 321.391L176.993 321.422L176.982 320.976L178.147 319.767L179.477 319.021L180.174 319.091L181.991 317.962L183.052 319.131L183.398 319.957L182.842 319.824L182.907 321.002L183.616 320.835L185.191 322.264L186.115 322.671L186.816 322.291L187.717 322.719L187.843 323.284L189.239 322.896L190.02 323.319L190.959 325.063L191.856 324.859L191.998 323.328L192.803 323.2L192.718 322.547L194.255 322.366L196.731 321.373Z"  stroke="black" /><path d="M308.293 93.9754L311.895 126.113L313.444 132.621L313.953 139.526L312.846 145.532L310.121 150.186L306.116 152.922L297.025 158.175L292.544 160.995L287.884 162.673L284.963 163.165L282.633 163.213L280.123 162.963L275.937 162.704L272.511 162.023L269.433 161.258L265.29 159.703L249.925 152.342L240.673 147.292L227.711 140.277L224.334 139.118L215.523 137.094L211.978 136.339L209.743 135.641L207.294 134.451L190.446 125.551L169.358 109.634L159.171 103.788L153.817 103.516L150.708 103.911L148.486 105.586L142.077 117.434L134.738 110.643L119.17 94.2514L89.0561 55.846L79.5359 43.6606L78.6351 43.1531L72.1388 41.7652L80.6091 31.3967L89.5085 19.2246L94.6978 13.8095L101.581 9.4361L106.204 7.1007L108.971 5.5092L112.685 3.1565L117.027 1.3507L119.737 0.633701L122.696 0L125.03 0.078701L126.544 0.4547L128.529 1.5389L141.273 10.818L143.227 12.5499L145.615 14.4046L148.467 18.9011L149.501 20.3008L151.245 23.1096L152.905 24.396L154.234 27.594L152.744 28.3512L155.503 34.2239L156.845 36.1847L158.416 38.0228L162.249 39.8481L163.452 40.8155L165.058 41.6689L167.419 42.479L170.911 42.8465L173.927 43.8488L176.909 43.9058L180.899 47.4214L181.435 47.7235L184.662 48.6997L185.122 49.387L188.173 50.4338L188.365 51.2395L190.952 53.569L191.469 53.4157L195.229 57.3393L198.954 59.6122L202.737 61.0971L203.009 61.5044L204.776 62.3365L205.121 60.9086L205.627 60.9306L208.11 61.9072L212.407 64.2988L214.044 64.8902L216.627 64.4172L236.645 73.0957L264.911 81.1145L284.155 86.8648L308.293 93.9754ZM254.175 206.753L251.995 206.208L250.147 204.875L249.185 203.023L246.541 196.607L244.747 194.448L243.674 193.415L240.136 190.359L228.765 182.35L216.182 173.336L205.263 165.713L202.216 163.622L197.222 160.49L193.42 155.812L191.024 152.773L189.235 150.81L187.617 149.229L185.44 147.587L181.949 145.329L180.098 143.393L179.814 142.375L179.883 140.742L181.014 139.433L181.972 139.087L183.129 139.205L191.067 140.759L194.493 142.002L195.869 143.055L197.375 148.219L198.207 150.291L200.192 153.067L200.89 153.651L204.818 155.118L206.612 155.588L210.866 157.52L225.224 163.547L229.209 164.232L231.662 164.926L234.729 166.495L238.971 169.201L240.512 169.939L242.769 170.506L244.065 171.095L247.246 173.613L249.212 175.516L251.562 177.146L252.872 178.531L254.647 181.04L256.663 184.169L257.487 185.853L257.901 187.233L258.073 190.258L258.901 193.732L259.031 197.482L258.863 199.483L258.368 203.318L257.518 205.24L256.667 206.089L255.042 206.704L254.175 206.753ZM381.849 166.732L382.773 165.91L383.264 166.64L382.275 167.189L381.849 166.732ZM260.492 189.559L260.158 186.979L259.361 184.904L258.02 181.99L258.311 180.921L259.108 180.702L260.956 180.649L264.811 180.882L266.823 181.616L267.831 182.403L268.755 182.741L272.569 183.088L274.581 184.266L276.133 185L279.402 186.24L291.172 191.96L301.827 196.801L315.563 199.751L326.456 201.748L336.639 201.853L347.298 202.698L348.758 204.826L348.954 207.852L344.136 224.417L342.086 226.798L339.195 226.107L334.983 222.693L319.668 217.012L308.458 217.852L296.461 216.695L287.776 213.747L284.699 213.431L278.187 212.361L276.758 212.357L275.627 213.14L274.581 213.307L271.185 212.177L269.265 210.628L268.835 209.872L266.237 207.791L263.638 204.536L261.833 201.616L261.036 200.046L260.871 198.7L260.745 194.773L260.492 189.559ZM212.326 157.209L209.521 156.602L208.689 156.146L203.258 152.219L201.085 150.195L198.774 147.104L198.287 146.265L198.203 145.005L198.571 144.583L201.258 144.513L203.573 144.97L205.458 145.505L207.233 146.383L208.636 147.525L211.809 150.88L213.583 152.861L214.53 154.27L214.875 155.412L214.243 156.862L213.557 157.169L212.326 157.209Z"  stroke="black" /><text fill="#000000" transform="translate(172.71002197265625 236.36151123046875)"></text><text fill="#000000" transform="translate(159.040771484375 256.7825012207031)"></text><text fill="#000000" transform="translate(145.77777099609375 237.97360229492188)"></text><text fill="#000000" transform="translate(163.747314453125 217.2843017578125)"></text><text fill="#000000" transform="translate(146.684326171875 219.94879150390625)"></text><text fill="#000000" transform="translate(174.23358154296875 213.22659301757812)"></text><text fill="#000000" transform="translate(184.87677001953125 206.6490936279297)"></text><text fill="#000000" transform="translate(151.83349609375 272.464111328125)"></text><text fill="#000000" transform="translate(153.2401123046875 172.9185028076172)"></text><text fill="#000000" transform="translate(106.68450927734375 182.7216033935547)"></text><text fill="#000000" transform="translate(242.0928955078125 284.17669677734375)"></text><text fill="#000000" transform="translate(103.96331787109375 384.3800048828125)"></text><text fill="#000000" transform="translate(94.1785888671875 305.2182922363281)"></text><text fill="#000000" transform="translate(64.37371826171875 273.28961181640625)"></text><text fill="#000000" transform="translate(197.2794189453125 357.7947082519531)"></text><text fill="#000000" transform="translate(227.7012939453125 108.39920043945312)"></text></svg>